<svg xmlns="http://www.w3.org/2000/svg" viewBox="0 0 155.23 154.53"><path d="M0 98.89c.68-12.4.2-25 2.25-37.16C8 27.52 40.24.6 74.87.15 93-.08 111.14 0 129.27.12c15.55.11 25.89 10.49 26 25.72s-10.48 26.24-26 26.44c-15.82.21-31.64 0-47.46.08-19 .07-28.81 10-28.88 29.09 0 15.64.06 31.29 0 46.93-.1 15.23-10.81 26-25.76 26.07-14.68.1-26-10.81-26.4-25.66-.24-9.95 0-19.92 0-29.87z" fill="#1f92fd"></path><path d="M105.45 68.43c8.17 0 16.35-.09 24.53 0 14.55.19 25 10.47 25.24 24.77.29 15.24-9.88 26.46-24.67 27.21l-1.6.06c-7 .25-7 .25-7.13 7.13-.15 13.08-8.13 23.09-20.86 26.17-15.73 3.8-31.29-7.51-31.7-23.68-.44-17.59-.19-35.19-.07-52.79 0-5.83 3.09-8.74 9.06-8.84 9.06-.15 18.13 0 27.2 0z" fill="#fb535a"></path></svg>
