<svg xmlns="http://www.w3.org/2000/svg" version="1.0" width="100%" height="100%" viewBox="0 0 340 250" preserveAspectRatio="xMidYMid meet" color-interpolation-filters="sRGB"><rect x="0" y="0" width="100%" height="100%" fill="#fff" fill-opacity="1"/><g class="c_box" style=""><svg xmlns="http://www.w3.org/2000/svg" j_control="icon" x="70" y="4" width="200" height="198"> <svg xmlns="http://www.w3.org/2000/svg" viewBox="0 0 155.23 154.53"><path d="M0 98.89c.68-12.4.2-25 2.25-37.16C8 27.52 40.24.6 74.87.15 93-.08 111.14 0 129.27.12c15.55.11 25.89 10.49 26 25.72s-10.48 26.24-26 26.44c-15.82.21-31.64 0-47.46.08-19 .07-28.81 10-28.88 29.09 0 15.64.06 31.29 0 46.93-.1 15.23-10.81 26-25.76 26.07-14.68.1-26-10.81-26.4-25.66-.24-9.95 0-19.92 0-29.87z" fill="#1f92fd"/><path d="M105.45 68.43c8.17 0 16.35-.09 24.53 0 14.55.19 25 10.47 25.24 24.77.29 15.24-9.88 26.46-24.67 27.21l-1.6.06c-7 .25-7 .25-7.13 7.13-.15 13.08-8.13 23.09-20.86 26.17-15.73 3.8-31.29-7.51-31.7-23.68-.44-17.59-.19-35.19-.07-52.79 0-5.83 3.09-8.74 9.06-8.84 9.06-.15 18.13 0 27.2 0z" fill="#fb535a"/></svg> </svg><g j_control="title" transform="translate(104,210)"> <path d="M2.89 23.62L2.89 13.09L0.49 13.09L0.49 10.23L2.89 10.23L2.89 9.43Q2.89 7.26 3.81 6.27Q4.73 5.28 6.79 5.28L6.79 5.28L10.01 5.28L10.01 8.14L8.14 8.14Q6.54 8.08 6.57 9.62L6.57 9.62L6.57 10.23L10.04 10.23L10.04 13.09L6.57 13.09L6.57 23.62L2.89 23.62ZM12.24 23.62L12.24 10.23L15.92 10.23L15.92 23.62L12.24 23.62ZM15.92 8.85L12.24 8.85L12.24 5.28L15.92 5.28L15.92 8.85ZM19.55 23.62L19.55 10.23L26.65 10.23Q28.24 10.23 29.08 10.46Q29.92 10.70 30.61 11.30L30.61 11.30Q32.01 12.59 32.01 15.37L32.01 15.37L32.01 23.62L28.33 23.62L28.33 14.96Q28.33 13.97 27.88 13.53Q27.45 13.09 26.43 13.09L26.43 13.09L23.24 13.09L23.24 23.62L19.55 23.62ZM38.64 15.48L46.39 15.48L46.39 18.34L38.64 18.34Q38.75 19.66 39.49 20.21Q40.23 20.76 41.91 20.76L41.91 20.76L46.39 20.76L46.39 23.62L41.50 23.62Q39.90 23.62 38.90 23.33Q37.89 23.04 37.01 22.38L37.01 22.38Q34.57 20.49 34.57 16.75L34.57 16.75Q34.57 14.33 35.86 12.51L35.86 12.51Q36.74 11.27 37.98 10.75Q39.21 10.23 41.22 10.23L41.22 10.23L46.39 10.23L46.39 13.09L41.50 13.09Q39.98 13.09 39.38 13.60Q38.77 14.11 38.64 15.48L38.64 15.48ZM47.60 14.88L54.01 14.88L54.01 18.18L47.60 18.18L47.60 14.88ZM54.45 10.23L56.79 10.23L56.79 5.28L60.47 5.28L60.47 10.23L63.88 10.23L63.88 13.09L60.47 13.09L60.47 17.96Q60.47 19.66 60.77 20.10L60.77 20.10Q61.24 20.76 62.42 20.76L62.42 20.76L63.88 20.76L63.88 23.62L61.21 23.62Q58.82 23.62 57.80 22.47Q56.79 21.31 56.79 18.59L56.79 18.59L56.79 13.09L54.45 13.09L54.45 10.23ZM66.38 23.62L66.38 10.23L71.83 10.23Q73.51 10.23 74.43 10.46Q75.35 10.70 75.95 11.25L75.95 11.25Q76.56 11.80 76.81 12.62Q77.05 13.45 77.05 14.99L77.05 14.99L77.05 16.28L73.51 16.28L73.51 15.56Q73.51 14.13 73.01 13.61Q72.52 13.09 71.11 13.09L71.11 13.09L70.07 13.09L70.07 23.62L66.38 23.62ZM84.53 20.76L88 20.76L88 10.23L91.69 10.23L91.69 23.62L84.42 23.62Q82.86 23.62 82.00 23.39Q81.15 23.15 80.49 22.55L80.49 22.55Q79.09 21.29 79.09 18.45L79.09 18.45L79.09 10.23L82.75 10.23L82.75 18.84Q82.75 19.74 83.23 20.25Q83.71 20.76 84.53 20.76L84.53 20.76ZM98.48 15.48L106.23 15.48L106.23 18.34L98.48 18.34Q98.59 19.66 99.33 20.21Q100.07 20.76 101.75 20.76L101.75 20.76L106.23 20.76L106.23 23.62L101.34 23.62Q99.74 23.62 98.74 23.33Q97.73 23.04 96.86 22.38L96.86 22.38Q94.41 20.49 94.41 16.75L94.41 16.75Q94.41 14.33 95.70 12.51L95.70 12.51Q96.58 11.27 97.82 10.75Q99.06 10.23 101.06 10.23L101.06 10.23L106.23 10.23L106.23 13.09L101.34 13.09Q99.83 13.09 99.22 13.60Q98.61 14.11 98.48 15.48L98.48 15.48Z" fill="#1f92fd" stroke="none" stroke-linejoin="round" stroke-width="0" transform="translate(-0.495,-5.279999999999998)"/> </g><g j_control="slogan" transform="translate(88,235)"> <path d="M10 1.63L10 1.63Q11.56 2.13 11.50 2.25L11.50 2.25Q11.50 2.38 11.38 2.44L11.38 2.44Q11.13 2.63 10.88 2.94L10.88 2.94Q10.50 3.25 10.13 3.88L10.13 3.88L11.94 3.88Q13.75 3.88 14.06 3.75L14.06 3.75L14.06 5.06Q13.69 4.94 11.94 4.94L11.94 4.94L8.56 4.94L8.56 6.19L10.94 6.19Q12.69 6.19 13 6.13L13 6.13L13 7.31Q13 7.31 12.94 7.31L12.94 7.31Q12.56 7.25 10.81 7.25L10.81 7.25L8.56 7.25L8.56 8.56L12.19 8.56Q14.38 8.56 14.69 8.44L14.69 8.44L14.69 9.69Q14.38 9.63 12.19 9.63L12.19 9.63L3.75 9.63Q1.81 9.63 1.44 9.69L1.44 9.69Q1.38 9.69 1.38 9.69L1.38 9.69L1.38 8.44Q1.38 8.44 1.44 8.44L1.44 8.44Q1.88 8.56 3.69 8.56L3.69 8.56L7.31 8.56L7.31 7.25L5.25 7.25Q3.31 7.25 3 7.31L3 7.31L3 6.13Q3.38 6.19 5.19 6.19L5.19 6.19L7.31 6.19L7.31 4.94L4.13 4.94Q2.56 4.94 2.19 5.06L2.19 5.06Q2.13 5.06 2.13 5.06L2.13 5.06L2.13 3.75Q2.44 3.88 4.13 3.88L4.13 3.88L9 3.88Q9.63 2.50 10 1.63ZM7.13 9.69L7.13 9.69Q7.19 9.69 7.31 9.69L7.31 9.69Q8.63 9.81 8.75 10L8.75 10Q8.75 10.06 8.56 10.25L8.56 10.25Q8.25 10.69 8.19 11.06L8.19 11.06L11.06 11.06Q13 11.06 13.38 11L13.38 11Q13.44 11 13.44 11L13.44 11L13.44 12.25Q13.44 12.25 13.38 12.25L13.38 12.25Q13 12.13 11.19 12.13L11.19 12.13L8.63 12.13Q11.13 14.38 14.94 14.13L14.94 14.13Q14.94 14.13 14.88 14.19L14.88 14.19Q14.19 14.94 13.94 15.63L13.94 15.63Q9.31 14.88 7.75 12.56L7.75 12.56Q6.56 15 2.06 15.75L2.06 15.75Q1.63 14.88 0.94 14.38L0.94 14.38Q5.75 14.50 6.81 12.13L6.81 12.13L4.63 12.13Q2.88 12.13 2.50 12.25L2.50 12.25Q2.44 12.25 2.44 12.25L2.44 12.25L2.44 11Q2.44 11 2.50 11L2.50 11Q2.88 11.06 4.75 11.06L4.75 11.06L7 11.06Q7.19 10.50 7.13 9.69ZM4.63 2.19L4.63 2.19L5.81 1.69Q6.56 2.44 7.06 3.31L7.06 3.31L6.06 3.75Q5.19 2.69 4.63 2.19ZM19.31 1.56L19.31 1.56Q21 1.69 21.06 1.88L21.06 1.88Q21.06 1.94 20.94 2.13L20.94 2.13Q20.69 2.44 20.63 2.63L20.63 2.63Q20.31 3.75 20.13 4.94L20.13 4.94L21.38 4.94Q22.56 4.94 23.19 4.81L23.19 4.81Q22.56 9.25 21.69 11.75L21.69 11.75Q21.88 11.88 22.25 12.13L22.25 12.13Q23.63 13 24 13.38L24 13.38L23.06 14.38Q22.13 13.56 21.19 12.94L21.19 12.94Q20.19 14.50 17.81 15.81L17.81 15.81Q17.44 15.13 16.69 14.63L16.69 14.63Q19.13 14 20.25 12.19L20.25 12.19Q19.94 12 17.56 10.63L17.56 10.63Q18.19 9.44 18.75 6.13L18.75 6.13L18.50 6.13Q17.56 6.13 16.81 6.31L16.81 6.31L16.81 4.81Q17.69 4.94 18.63 4.94L18.63 4.94L18.94 4.94Q18.94 4.88 19 4.63L19 4.63Q19.31 2.38 19.31 1.56ZM30.94 2.56L30.94 2.56L30.94 4.06Q30.19 4.13 28 6.25L28 6.25L28 7.94L29.06 7.94Q30.50 7.94 31.25 7.81L31.25 7.81L31.25 9.31Q30.31 9.19 29.06 9.19L29.06 9.19L28 9.19L28 14.63Q27.94 15.94 25.38 15.81L25.38 15.81Q25.38 14.88 24.50 14.13L24.50 14.13Q26.88 14.56 26.69 13.50L26.69 13.50L26.69 9.25L25.44 9.25Q24.06 9.25 23 9.38L23 9.38L23 7.81Q23.75 7.94 25.50 7.94L25.50 7.94L26.69 7.94L26.69 6.06Q27.31 5.56 29.13 3.81L29.13 3.81L25.44 3.81Q24.25 3.81 23.38 3.94L23.38 3.94L23.38 2.63Q23.88 2.75 25.38 2.75L25.38 2.75L28.75 2.75Q30.19 2.75 30.94 2.56ZM21.69 6.13L21.69 6.13L19.88 6.13Q19.75 6.63 19.56 7.56L19.56 7.56Q19.19 9.38 19 10.13L19 10.13Q19.31 10.31 20.19 10.81L20.19 10.81Q20.56 11 20.69 11.06L20.69 11.06Q21.31 9.25 21.69 6.13ZM41.88 1.38L41.88 1.38Q43.56 1.88 43.56 2.06L43.56 2.06Q43.56 2.13 43.44 2.19L43.44 2.19Q43.19 2.31 43.13 2.56L43.13 2.56Q42.56 3.50 42.25 4.50L42.25 4.50L44.56 4.50Q45.94 4.50 46.69 4.44L46.69 4.44Q46.19 12.63 46.06 14.06L46.06 14.06Q45.88 15.81 42.63 15.94L42.63 15.94Q42.44 15 41.88 14.31L41.88 14.31Q43.56 14.63 44.44 14.25L44.44 14.25Q44.88 14.31 45.06 8.69L45.06 8.69Q45.19 6.69 45.25 5.50L45.25 5.50L41.81 5.50Q41.19 6.69 40.31 8.25L40.31 8.25Q39.75 7.88 39.19 7.75L39.19 7.75L39.19 13.38Q39.19 14.94 39.25 15.38L39.25 15.38L37.81 15.38Q37.88 14.81 37.88 13.88L37.88 13.88L34.81 13.88Q34.81 14.81 34.88 15.50L34.88 15.50L33.44 15.50Q33.50 14.94 33.50 13.44L33.50 13.44L33.50 6.75Q33.50 6.50 33.44 5.56L33.44 5.56Q33.44 4.75 33.44 4.56L33.44 4.56Q34.38 4.63 34.81 4.63L34.81 4.63L35.25 4.63Q35.44 3.63 35.56 1.56L35.56 1.56Q37.31 1.75 37.19 2L37.19 2Q37.19 2.13 37.06 2.25L37.06 2.25Q36.94 2.38 36.88 2.56L36.88 2.56Q36.69 3 36.50 3.81L36.50 3.81Q36.38 4.31 36.31 4.63L36.31 4.63L37.38 4.63Q37.88 4.63 39.25 4.56L39.25 4.56Q39.19 5 39.19 6.56L39.19 6.56L39.19 7.44Q41.13 5.25 41.88 1.38ZM37.88 5.63L34.81 5.63L34.81 8.88L37.88 8.88L37.88 5.63ZM40.81 8.81L41.88 8.19Q42.25 8.69 43.19 10.50L43.19 10.50Q43.44 10.88 43.50 11.06L43.50 11.06L42.31 11.69Q42.13 10.94 40.81 8.81L40.81 8.81ZM37.88 9.81L34.81 9.81L34.81 12.88L37.88 12.88L37.88 9.81ZM55.06 1.25L55.06 1.25Q56.63 1.38 56.69 1.56L56.69 1.56Q56.69 1.63 56.56 1.81L56.56 1.81Q56.44 2 56.44 2.13L56.44 2.13L56.44 2.81L60.50 2.81Q62.25 2.75 63.06 2.69L63.06 2.69L63.06 4Q62.25 3.94 60.50 3.88L60.50 3.88L56.44 3.88L56.44 4.88L59.19 4.88Q59.50 4.88 61 4.81L61 4.81Q60.94 5 60.94 6.13L60.94 6.13L60.94 6.50L60.94 7.88Q59.69 7.75 59.13 7.75L59.13 7.75L56.44 7.75L56.44 8.75L59.50 8.75Q60.94 8.75 61.25 8.69L61.25 8.69Q61.31 8.69 61.31 8.75L61.31 8.75Q61.31 9.25 61.31 10L61.31 10L61.31 10.63Q61.75 10.63 62.44 10.56L62.44 10.56Q62.88 10.56 63.13 10.56L63.13 10.56L63.13 11.63Q62.25 11.50 61.31 11.50L61.31 11.50L61.31 12.56Q61.31 12.69 61.31 13.19L61.31 13.19Q61.38 13.94 61.38 14.19L61.38 14.19L60.06 14.19L60.13 13.50L56.50 13.50Q56.44 13.88 56.50 14.25L56.50 14.25Q56.50 14.38 56.50 14.44L56.50 14.44Q56.50 16.13 53.75 16.13L53.75 16.13Q53.69 15.31 53.19 14.56L53.19 14.56Q54.88 14.88 55.13 14.50L55.13 14.50Q55.19 14.38 55.19 13.44L55.19 13.44L52 13.44Q51.63 13.44 50.75 13.50L50.75 13.50Q50.19 13.50 50.06 13.50L50.06 13.50L50.06 12.56Q50.81 12.56 52.06 12.56L52.06 12.56L55.19 12.56L55.19 11.56L50.38 11.56Q50.06 11.56 49.50 11.63L49.50 11.63Q49 11.63 48.81 11.63L48.81 11.63L48.81 10.63Q49.06 10.63 49.50 10.63L49.50 10.63Q50.06 10.69 50.44 10.69L50.44 10.69L55.19 10.69L55.19 9.63L52.06 9.63Q50.56 9.63 50.25 9.69L50.25 9.69L50.25 8.69Q50.38 8.69 50.88 8.69L50.88 8.69Q51.75 8.75 52.06 8.75L52.06 8.75L55.19 8.75L55.19 7.75L52.88 7.75Q52.38 7.75 50.81 7.88L50.81 7.88Q50.81 7.50 50.88 6.50L50.88 6.50L50.88 6.06Q50.88 5.88 50.81 5.44L50.81 5.44Q50.81 5 50.81 4.88L50.81 4.88Q51.88 4.94 52.31 4.94L52.31 4.94L55.13 4.94L55.13 3.88L51.25 3.88Q49.75 3.88 48.88 4L48.88 4L48.88 2.69Q49.56 2.81 51.31 2.81L51.31 2.81L55.13 2.81Q55.13 1.56 55.06 1.25ZM55.19 6.88L55.19 5.81L52.06 5.81L52.06 6.88L55.19 6.88ZM56.44 5.75L56.44 6.88L59.69 6.88L59.69 5.75L56.44 5.75ZM56.44 9.63L56.44 10.63L60.13 10.63L60.13 9.63L56.44 9.63ZM60.13 11.50L56.44 11.50L56.44 12.63L60.13 12.63L60.13 11.50ZM73.44 1.31L73.44 1.31Q74.94 1.31 75 1.50L75 1.50Q75 1.56 74.94 1.75L74.94 1.75Q74.81 1.94 74.81 2.06L74.81 2.06L74.81 3L76.25 3Q77.38 3 78.88 2.88L78.88 2.88L78.88 4.06Q78.38 4 76.19 4L76.19 4L74.81 4L74.81 4.94L75.94 4.94Q77.88 4.94 78.31 4.88L78.31 4.88L78.31 6Q78.25 6 77.81 6L77.81 6Q76.69 5.94 76 5.94L76 5.94L74.81 5.94L74.81 6.94L76.94 6.94Q79 6.94 79.31 6.81L79.31 6.81L79.31 8Q79.25 7.94 77.06 7.94L77.06 7.94L72.06 7.94Q70.69 7.94 69.69 8L69.69 8L69.69 6.81Q71.31 6.94 72 6.94L72 6.94L73.56 6.94L73.56 5.94L72.25 5.94Q71.06 5.94 70.44 6L70.44 6L70.44 4.81Q71.31 4.94 72.19 4.94L72.19 4.94L73.56 4.94L73.56 4L72.13 4Q70.31 4 69.94 4.06L69.94 4.06L69.94 2.88Q71.06 3 72.06 3L72.06 3L73.50 3Q73.50 1.38 73.44 1.31ZM66.75 1.50L66.75 1.50Q66.94 1.50 67.25 1.50L67.25 1.50Q68.50 1.56 68.50 1.75L68.50 1.75Q68.50 1.88 68.38 2.06L68.38 2.06Q68.13 2.50 68.13 2.94L68.13 2.94L68.13 13.06Q68.13 15.38 68.19 15.94L68.19 15.94L66.75 15.94Q66.81 15.50 66.81 13.06L66.81 13.06L66.81 2.94Q66.81 1.94 66.75 1.50ZM68.19 4.94L69.25 4.31Q70.13 5.69 70.44 6.25L70.44 6.25L69.19 6.88Q69.13 6.75 69.06 6.56L69.06 6.56Q68.81 5.81 68.19 4.94L68.19 4.94ZM65 4.88L65 4.88L66.38 5Q66.25 7 65.88 9L65.88 9Q65.19 8.75 64.50 8.81L64.50 8.81Q64.88 7.19 65 4.88ZM76.63 9.75L71.81 9.75L71.81 10.75L76.63 10.75L76.63 9.75ZM76.63 11.63L71.81 11.63L71.81 12.50L76.63 12.50L76.63 11.63ZM77.94 8.69L77.94 8.69Q77.75 9.38 77.81 10L77.81 10L77.81 14.38Q78.19 16.06 75.63 16.06L75.63 16.06Q75.50 15.25 74.94 14.56L74.94 14.56Q76.75 14.75 76.63 14.31L76.63 14.31L76.63 13.38L71.81 13.38Q71.81 15.94 71.94 16L71.94 16L70.38 16Q70.63 15.31 70.63 14.38L70.63 14.38L70.63 10Q70.63 9.19 70.50 8.69L70.50 8.69Q71.19 8.81 72.13 8.81L72.13 8.81L76.13 8.81Q77.19 8.88 77.94 8.69ZM81.94 2.13L81.94 2.13Q82 2.13 82.19 2.13L82.19 2.13Q82.88 2.25 83.56 2.25L83.56 2.25L86.31 2.25Q87.19 2.25 87.81 2.13L87.81 2.13Q87.81 2.13 87.81 2.31L87.81 2.31Q87.69 3 87.69 3.88L87.69 3.88L87.69 7.50Q87.69 8.31 87.81 9.06L87.81 9.06Q87.81 9.19 87.81 9.25L87.81 9.25Q87.13 9.19 86.25 9.19L86.25 9.19L83.25 9.19L83.25 12.44Q85.13 11.50 85.63 11.25L85.63 11.25Q85.44 11.06 85.19 10.75L85.19 10.75Q84.88 10.38 84.69 10.19L84.69 10.19L85.69 9.56Q87.38 11.19 88.63 12.75L88.63 12.75L87.38 13.56Q87.31 13.44 87.13 13.19L87.13 13.19Q86.75 12.63 86.25 12L86.25 12Q82.69 13.88 82.19 14.38L82.19 14.38L81.38 13.38Q82.13 12.69 82.06 12L82.06 12L82.06 3.81Q82.06 2.81 81.94 2.13ZM89.06 2.25L90.81 2.44L92.69 2.44L94.13 2.25L94.06 3.88L94.06 11.06Q94.50 13.13 91.63 13.38L91.63 13.38Q91.44 12.44 90.94 11.69L90.94 11.69Q93 11.94 92.81 11.38L92.81 11.38L92.81 3.50L90.44 3.50L90.44 13.31Q90.44 14.88 90.50 15.56L90.50 15.56Q90.50 15.63 90.50 15.63L90.50 15.63L89.13 15.63Q89.13 15.63 89.13 15.56L89.13 15.56Q89.19 15 89.19 13.31L89.19 13.31L89.19 3.94L89.06 2.25ZM86.50 3.25L83.25 3.25L83.25 5.19L86.50 5.19L86.50 3.25ZM86.50 6.06L83.25 6.06L83.25 8.06L86.50 8.06L86.50 6.06ZM104.63 1.63L104.63 1.63Q106.13 1.94 106.19 2.13L106.19 2.13Q106.19 2.19 106 2.38L106 2.38Q105.50 2.81 105.19 3.38L105.19 3.38L110.38 3.38Q108 7.81 102.88 9.13L102.88 9.13Q102.50 8.44 101.94 8L101.94 8Q104.19 7.56 105.50 6.94L105.50 6.94Q104.63 6.25 103.88 5.94L103.88 5.94L104.94 4.94Q106 5.69 106.50 6.25L106.50 6.25Q107.31 5.56 108.25 4.44L108.25 4.44L104.56 4.44Q103.31 6.06 102.75 6.69L102.75 6.69Q102.44 6.31 101.63 6L101.63 6Q103.50 4.19 104.63 1.63ZM99.94 1.69L99.94 1.69Q101.56 1.81 101.56 2.06L101.56 2.06Q101.56 2.19 101.50 2.31L101.50 2.31Q101.31 2.69 101.31 3L101.31 3L101.31 12.81Q101.31 15 101.38 15.69L101.38 15.69L99.88 15.69Q99.88 15.63 99.88 15.50L99.88 15.50Q100.06 13.94 100.06 12.94L100.06 12.94L100.06 9.69Q98.38 11.75 97.69 12.50L97.69 12.50L96.56 11.19Q98 10.25 99.81 8.31L99.81 8.31Q100 8.13 100.06 8.06L100.06 8.06L100.06 3Q100.06 2.50 99.94 1.69ZM96.94 4.25L98.19 3.69Q98.44 4.06 99.25 5.88L99.25 5.88Q99.63 6.63 99.75 6.88L99.75 6.88L98.38 7.44Q97.88 5.69 96.94 4.25L96.94 4.25ZM107.63 7.19L107.63 7.19Q109.19 7.13 109.19 7.31L109.19 7.31Q109.25 7.44 109.13 7.69L109.13 7.69Q109.06 7.94 109.06 8.06L109.06 8.06L109.06 9.44L109.44 9.44Q109.69 9.44 110.31 9.38L110.31 9.38Q110.88 9.38 111.06 9.38L111.06 9.38L111.06 10.63Q110.94 10.63 110.56 10.63L110.56 10.63Q109.75 10.56 109.44 10.56L109.44 10.56L109.06 10.56L109.06 14.38Q109.13 15.63 106.38 15.69L106.38 15.69Q106.19 14.75 105.69 14.19L105.69 14.19Q107.69 14.38 107.69 13.94L107.69 13.94L107.69 10.56L104.50 10.56Q103 10.56 102.06 10.63L102.06 10.63L102.06 9.38Q103.13 9.44 104.50 9.44L104.50 9.44L107.69 9.44L107.69 8.06Q107.69 7.13 107.63 7.19ZM103.38 11.50L104.63 10.94Q105.19 11.69 106.06 13.19L106.06 13.19L104.69 13.75Q104.06 12.31 103.38 11.50L103.38 11.50ZM118.94 1.50L118.94 1.50Q120.75 1.50 120.81 1.69L120.81 1.69Q120.81 1.75 120.69 1.88L120.69 1.88Q120.50 2.13 120.44 2.31L120.44 2.31Q119.94 3.69 119.63 5.13L119.63 5.13L124.19 5.13Q125.38 5.13 126.31 5L126.31 5Q126.44 5 126.50 5L126.50 5L126.50 6.38Q126.50 6.38 126.38 6.38L126.38 6.38Q125.69 6.25 124.19 6.25L124.19 6.25L119.25 6.25Q119 7.06 118.63 7.94L118.63 7.94Q123.50 7.94 125.06 7.75L125.06 7.75Q123.81 11.19 121.81 13L121.81 13Q124.44 14.38 127.13 14.25L127.13 14.25Q126.50 14.75 126.13 15.81L126.13 15.81Q122.94 15.06 120.81 13.75L120.81 13.75Q118.44 15.13 115.44 15.81L115.44 15.81Q115.13 15.19 114.31 14.50L114.31 14.50Q117.19 14.31 119.88 12.88L119.88 12.88Q118.56 11.06 117.94 9.31L117.94 9.31Q116.44 12.38 113.75 14.44L113.75 14.44Q113.19 13.81 112.50 13.50L112.50 13.50Q116.19 11.25 117.94 6.25L117.94 6.25L116.75 6.25Q115.06 6.31 113.94 6.75L113.94 6.75Q113.88 6.75 113.88 6.75L113.88 6.75L113.31 5.38Q114.81 5 115.31 2.13L115.31 2.13Q116.75 2.56 117 2.75L117 2.75Q117 2.81 116.81 2.94L116.81 2.94Q116.50 3.19 116.31 3.44L116.31 3.44Q116.25 3.56 116 4L116 4Q115.56 4.75 115.31 5.13L115.31 5.13L118.31 5.13Q118.75 3.50 118.94 1.50ZM121.88 2.81L123.19 1.94Q124.44 3.19 125 4.06L125 4.06L123.75 4.88Q122.81 3.44 121.88 2.81L121.88 2.81ZM123.06 8.94L119.13 9Q119.81 10.69 120.88 12.19L120.88 12.19Q122.38 10.94 123.06 8.94L123.06 8.94ZM135.56 1.69L135.56 1.69Q137.19 1.69 137.50 1.94L137.50 1.94Q137.50 2 137.38 2.13L137.38 2.13Q137 2.69 137 3.38L137 3.38L137 5.56L139.69 5.56Q141.19 5.56 141.94 5.44L141.94 5.44Q142.06 5.44 142.13 5.44L142.13 5.44L142.13 6.81Q142.13 6.81 142 6.81L142 6.81Q141 6.69 139.69 6.69L139.69 6.69L137 6.69L137 9.56L139.13 9.56Q140.44 9.56 141.19 9.44L141.19 9.44Q141.31 9.44 141.31 9.44L141.31 9.44L141.31 10.88Q141.31 10.88 141.19 10.88L141.19 10.88Q140.44 10.75 139.13 10.75L139.13 10.75L137 10.75L137 14.13L140.50 14.13Q141.69 14.13 142.63 14L142.63 14Q142.81 14 142.81 14L142.81 14L142.81 15.38Q142.75 15.38 142.63 15.38L142.63 15.38Q141.81 15.25 140.50 15.25L140.50 15.25L131.56 15.25Q130.44 15.25 129.38 15.38L129.38 15.38Q129.19 15.38 129.19 15.38L129.19 15.38L129.19 14Q129.25 14 129.44 14L129.44 14Q130.44 14.13 131.56 14.13L131.56 14.13L135.69 14.13L135.69 10.75L133.75 10.75Q132.63 10.75 131.69 10.88L131.69 10.88Q131.50 10.88 131.50 10.88L131.50 10.88L131.50 9.44Q131.50 9.44 131.69 9.44L131.69 9.44Q132.69 9.56 133.75 9.56L133.75 9.56L135.69 9.56L135.69 6.69L131.94 6.69Q131 8.31 130.50 9.13L130.50 9.13Q130.13 8.94 129.44 8.75L129.44 8.75Q129.13 8.63 129.13 8.63L129.13 8.63Q131.31 6.31 131.88 2.88L131.88 2.88Q133.56 3.25 133.69 3.56L133.69 3.56Q133.69 3.63 133.50 3.81L133.50 3.81Q132.94 4.44 132.50 5.56L132.50 5.56L135.69 5.56L135.69 3.25Q135.69 2.56 135.56 1.88L135.56 1.88Q135.56 1.75 135.56 1.69Z" fill="#fb535a" stroke="none" stroke-linejoin="round" stroke-width="0" transform="translate(-0.9375,-1.25)"/> </g></g> <defs/> </svg>